<svg width="16" height="16" viewBox="0 0 16 16" fill="none" xmlns="http://www.w3.org/2000/svg">
    <path d="M8 14.5C11.6 14.5 14.5 11.6 14.5 8C14.5 4.4 11.6 1.5 8 1.5C4.4 1.5 1.5 4.4 1.5 8C1.5 11.6 4.4 14.5 8 14.5Z" fill="#F0F0F0"/>
    <path d="M2.79922 4C2.29922 4.7 1.89922 5.4 1.69922 6.3H5.09922L2.79922 4Z" fill="#0052B4"/>
    <path d="M14.3004 6.3C14.1004 5.5 13.7004 4.7 13.2004 4L10.9004 6.3H14.3004Z" fill="#0052B4"/>
    <path d="M1.69922 9.70001C1.89922 10.5 2.29922 11.3 2.79922 12L5.09922 9.70001H1.69922Z" fill="#0052B4"/>
    <path d="M11.9992 2.80001C11.2992 2.30001 10.5992 1.90001 9.69922 1.70001V5.10001L11.9992 2.80001Z" fill="#0052B4"/>
    <path d="M4 13.2C4.7 13.7 5.4 14.1 6.3 14.3V10.9L4 13.2Z" fill="#0052B4"/>
    <path d="M6.3 1.70001C5.5 1.90001 4.7 2.30001 4 2.80001L6.3 5.10001V1.70001Z" fill="#0052B4"/>
    <path d="M9.69922 14.3C10.4992 14.1 11.2992 13.7 11.9992 13.2L9.69922 10.9V14.3Z" fill="#0052B4"/>
    <path d="M10.9004 9.70001L13.2004 12C13.7004 11.3 14.1004 10.6 14.3004 9.70001H10.9004Z" fill="#0052B4"/>
    <path d="M14.3996 7.20001H8.79961V1.60001C8.49961 1.60001 8.19961 1.60001 7.99961 1.60001C7.79961 1.60001 7.39961 1.60001 7.19961 1.60001V7.20001H1.59961C1.59961 7.50001 1.59961 7.80001 1.59961 8.00001C1.59961 8.20001 1.59961 8.60001 1.59961 8.80001H7.19961V14.4C7.49961 14.4 7.79961 14.4 7.99961 14.4C8.19961 14.4 8.59961 14.4 8.79961 14.4V8.80001H14.3996C14.3996 8.50001 14.3996 8.20001 14.3996 8.00001C14.3996 7.80001 14.3996 7.40001 14.3996 7.20001Z" fill="#D80027"/>
    <path d="M9.69922 9.70001L12.5992 12.6C12.6992 12.5 12.8992 12.3 12.9992 12.2L10.4992 9.70001H9.69922Z" fill="#D80027"/>
    <path d="M6.30039 9.70001L3.40039 12.6C3.50039 12.7 3.70039 12.9 3.80039 13L6.30039 10.5V9.70001Z" fill="#D80027"/>
    <path d="M6.3 6.29999L3.4 3.39999C3.3 3.49999 3.1 3.69999 3 3.79999L5.5 6.29999H6.3Z" fill="#D80027"/>
    <path d="M9.69922 6.3L12.5992 3.4C12.4992 3.3 12.2992 3.1 12.1992 3L9.69922 5.5V6.3Z" fill="#D80027"/>
</svg>