<svg width="16" height="16" viewBox="0 0 16 16" fill="none" xmlns="http://www.w3.org/2000/svg">
    <path d="M1.5 7.99996C1.5 8.79996 1.6 9.49996 1.9 10.2H14.1C14.4 9.49996 14.5 8.69996 14.5 7.99996C14.5 7.19996 14.4 6.49996 14.1 5.79996H1.9C1.6 6.49996 1.5 7.29996 1.5 7.99996Z" fill="#0547AF"/>
    <path d="M8.00039 14.5C10.8004 14.5 13.2004 12.7 14.1004 10.2H1.90039C2.80039 12.7 5.20039 14.5 8.00039 14.5Z" fill="#D82E25"/>
    <path d="M8.00039 1.49997C5.20039 1.49997 2.80039 3.29997 1.90039 5.79997H14.1004C13.2004 3.29997 10.8004 1.49997 8.00039 1.49997Z" fill="white"/>
</svg>